<svg width="19" height="19" viewBox="0 0 19 19" fill="none" xmlns="http://www.w3.org/2000/svg">
<path d="M2.86307 3.29391C4.60476 1.55221 6.70434 0.681365 9.16181 0.681365C11.6193 0.681365 13.7069 1.55221 15.4248 3.29391C17.1665 5.01175 18.0373 7.0994 18.0373 9.55687C18.0373 12.0143 17.1665 14.1139 15.4248 15.8556C13.7069 17.5734 11.6193 18.4324 9.16181 18.4324C6.70434 18.4324 4.60476 17.5734 2.86307 15.8556C1.14523 14.1139 0.286307 12.0143 0.286307 9.55687C0.286307 7.0994 1.14523 5.01175 2.86307 3.29391ZM16.8921 9.55687C16.8921 7.40957 16.1286 5.58436 14.6016 4.08125C13.0985 2.57815 11.2852 1.82659 9.16181 1.82659C7.01451 1.82659 5.18931 2.59008 3.6862 4.11704C2.18309 5.62015 1.43153 7.43343 1.43153 9.55687C1.43153 11.7042 2.18309 13.5294 3.6862 15.0325C5.21316 16.5356 7.03837 17.2871 9.16181 17.2871C11.3091 17.2871 13.1343 16.5356 14.6374 15.0325C16.1405 13.5055 16.8921 11.6803 16.8921 9.55687ZM11.5596 12.7062L8.66077 10.5947C8.54148 10.5232 8.48183 10.4158 8.48183 10.2726V4.5465C8.48183 4.2602 8.62498 4.11704 8.91129 4.11704H9.41233C9.69863 4.11704 9.84179 4.2602 9.84179 4.5465V9.7716L12.3828 11.6326C12.5975 11.7996 12.6213 11.9905 12.4543 12.2052L12.168 12.6347C12.001 12.8494 11.7982 12.8733 11.5596 12.7062Z" fill="#036CCC"/>
</svg>
