<svg width="30" height="30" viewBox="0 0 30 30" fill="none" xmlns="http://www.w3.org/2000/svg">
<g clip-path="url(#clip0_1418_16878)">
<path d="M29.4118 14.6014C29.4118 6.59331 22.8277 0.10144 14.7059 0.10144C6.58404 0.10144 0 6.59331 0 14.6014C0 21.8387 5.3777 27.8375 12.4081 28.9253V18.7928H8.67417V14.6014H12.4081V11.4069C12.4081 7.77285 14.6036 5.7655 17.9627 5.7655C19.5712 5.7655 21.2546 6.04871 21.2546 6.04871V9.61707H19.4003C17.5735 9.61707 17.0037 10.7349 17.0037 11.8827V14.6014H21.0823L20.4303 18.7928H17.0037V28.9253C24.0341 27.8375 29.4118 21.8387 29.4118 14.6014Z" fill="#D8D8D8"/>
</g>
<defs>
<clipPath id="clip0_1418_16878">
<rect width="29.4118" height="29" fill="white" transform="translate(0 0.101562)"/>
</clipPath>
</defs>
</svg>
