<svg width="19" height="19" viewBox="0 0 19 19" fill="none" xmlns="http://www.w3.org/2000/svg">
<path d="M2.86306 3.30905C4.60476 1.56735 6.70434 0.696502 9.16181 0.696502C11.6193 0.696502 13.7069 1.56735 15.4248 3.30905C17.1665 5.02689 18.0373 7.11454 18.0373 9.572C18.0373 12.0295 17.1665 14.129 15.4248 15.8707C13.7069 17.5886 11.6193 18.4475 9.16181 18.4475C6.70434 18.4475 4.60476 17.5886 2.86306 15.8707C1.14523 14.129 0.286306 12.0295 0.286306 9.572C0.286306 7.11454 1.14523 5.02689 2.86306 3.30905ZM16.8921 9.75094C16.8921 9.75094 16.8921 9.72709 16.8921 9.67937C16.8921 9.63165 16.8921 9.59586 16.8921 9.572C16.8921 8.4745 16.6654 7.41278 16.2121 6.38684L15.3532 6.8163C15.3055 6.84016 15.2697 6.87595 15.2458 6.92367L14.5301 7.99732C14.5062 8.04504 14.4943 8.09275 14.4943 8.14047C14.4943 8.18819 14.5062 8.23591 14.5301 8.28362L15.1742 9.24991C15.222 9.32149 15.2816 9.3692 15.3532 9.39306L16.8921 9.75094ZM1.43153 9.572C1.43153 11.3853 1.99222 12.9958 3.11358 14.4034C4.25881 15.8111 5.70227 16.7058 7.44397 17.0875V16.336C7.46783 16.169 7.42011 15.9423 7.30082 15.656C7.18152 15.3697 7.01451 15.1192 6.79978 14.9045C6.46576 14.5704 6.29874 14.1648 6.29874 13.6877V12.5424C6.29874 12.3038 6.20331 12.1368 6.01244 12.0414C5.29667 11.6358 4.72406 11.3256 4.2946 11.1109C3.84128 10.8723 3.41182 10.586 3.00622 10.252C2.71991 9.96567 2.46939 9.66744 2.25466 9.35727C2.06379 9.09483 1.8252 8.74887 1.5389 8.31941C1.46732 8.77273 1.43153 9.19026 1.43153 9.572ZM8.58919 17.2665C8.85164 17.2903 9.04251 17.3023 9.16181 17.3023C9.32882 17.3023 9.54355 17.2903 9.806 17.2665L10.7723 14.6897C10.7961 14.6182 10.8319 14.4869 10.8796 14.2961L10.9154 14.1529C10.987 13.8905 11.1182 13.6757 11.3091 13.5087L11.7028 13.0793C11.9175 12.8645 12.0249 12.614 12.0249 12.3277C12.0249 12.1846 11.9772 12.0533 11.8817 11.934L11.3807 11.4688C11.2614 11.3495 11.1302 11.2898 10.987 11.2898H8.44604L8.33868 11.2183C8.14781 11.1467 7.92115 10.92 7.6587 10.5383C7.51555 10.3236 7.40818 10.1923 7.3366 10.1446C6.90714 10.1208 6.50154 10.0134 6.1198 9.82252L5.69034 9.64358C5.33246 9.45271 5.15352 9.15447 5.15352 8.74887C5.15352 8.53414 5.21316 8.34327 5.33246 8.17626C5.47561 7.98539 5.64262 7.85416 5.83349 7.78259L6.94293 7.4247C7.20538 7.32927 7.46783 7.32927 7.73028 7.4247L7.58712 7.1384C7.39625 6.78051 7.4559 6.44649 7.76606 6.13633L8.12395 5.81423C8.29096 5.64722 8.49376 5.56371 8.73235 5.56371H8.91129C8.76814 5.3967 8.69656 5.20583 8.69656 4.9911C8.72042 4.75251 8.80392 4.54971 8.94708 4.3827L9.4839 3.84587L7.6587 1.98488C6.34646 2.24733 5.17738 2.81994 4.15144 3.70272C3.14937 4.56164 2.40975 5.61143 1.93257 6.85209C2.48132 7.68715 2.89885 8.30748 3.18516 8.71308C3.35217 8.95167 3.54304 9.1664 3.75777 9.35727C4.0918 9.66744 4.43775 9.90603 4.79563 10.073C5.22509 10.3116 5.80964 10.6337 6.54926 11.0393C7.14573 11.3495 7.44397 11.8505 7.44397 12.5424V13.6877C7.44397 13.8308 7.50362 13.962 7.62291 14.0813C7.93308 14.3915 8.18359 14.7732 8.37447 15.2266C8.56534 15.6799 8.63691 16.0735 8.58919 16.4076V17.2665ZM11.1302 17.0518C12.5617 16.67 13.7904 15.9304 14.8164 14.8329C15.8662 13.7115 16.5223 12.4112 16.7847 10.932L15.0669 10.5025C14.709 10.4071 14.4346 10.2043 14.2437 9.8941L13.5996 8.92781C13.2417 8.40292 13.2417 7.87802 13.5996 7.35313L14.2795 6.27948C14.4227 6.08861 14.6136 5.93352 14.8521 5.81423L15.6753 5.38477C14.9595 4.31112 14.029 3.4522 12.8838 2.80801C11.7386 2.16382 10.4979 1.84173 9.16181 1.84173C9.16181 1.84173 9.14988 1.84173 9.12602 1.84173L10.307 3.02274C10.5218 3.26133 10.6291 3.53571 10.6291 3.84587C10.6291 4.15604 10.5218 4.43042 10.307 4.669L9.98494 4.9911C10.1281 5.15811 10.1877 5.36091 10.1639 5.5995C10.1639 5.81423 10.0923 6.0051 9.94915 6.17211L9.66284 6.45842C9.49583 6.62543 9.29303 6.70894 9.05444 6.70894H8.83971L8.73235 6.8163L9.1976 7.7468C9.34075 8.03311 9.31689 8.31941 9.12602 8.60572C8.95901 8.86817 8.72042 8.99939 8.41025 8.99939H8.19552C8.00465 8.99939 7.82571 8.92781 7.6587 8.78466L7.30082 8.49835L6.51347 8.74887L6.62084 8.82045C6.88329 8.93974 7.15766 8.99939 7.44397 8.99939C7.77799 8.99939 8.15974 9.2857 8.58919 9.85831C8.68463 10.0015 8.75621 10.0969 8.80392 10.1446H10.987C11.4642 10.1446 11.8698 10.3116 12.2038 10.6457L12.6691 11.1467C13.0031 11.4569 13.1701 11.8505 13.1701 12.3277C13.1701 12.948 12.9554 13.4729 12.5259 13.9024L12.168 14.2245C12.0964 14.3199 12.0487 14.3915 12.0249 14.4392L11.9891 14.5824C11.9414 14.7971 11.8936 14.9641 11.8459 15.0834L11.1302 17.0518Z" fill="#036CCC"/>
</svg>
