<svg width="30" height="30" viewBox="0 0 30 30" fill="none" xmlns="http://www.w3.org/2000/svg">
<g clip-path="url(#clip0_1418_16882)">
<path d="M14.7645 2.71257C18.6937 2.71257 19.159 2.72957 20.7043 2.79753C22.1404 2.85984 22.9159 3.09773 23.4329 3.29597C24.1165 3.55652 24.6105 3.87371 25.1218 4.37781C25.6388 4.88757 25.9547 5.36902 26.219 6.04304C26.42 6.55281 26.6613 7.32312 26.7245 8.73347C26.7934 10.2628 26.8107 10.7216 26.8107 14.5901C26.8107 18.4643 26.7934 18.9231 26.7245 20.4468C26.6613 21.8628 26.42 22.6274 26.219 23.1372C25.9547 23.8112 25.633 24.2983 25.1218 24.8024C24.6048 25.3122 24.1165 25.6237 23.4329 25.8843C22.9159 26.0825 22.1347 26.3204 20.7043 26.3827C19.1533 26.4507 18.688 26.4677 14.7645 26.4677C10.8352 26.4677 10.3699 26.4507 8.82468 26.3827C7.38856 26.3204 6.61305 26.0825 6.09605 25.8843C5.41245 25.6237 4.91843 25.3065 4.40717 24.8024C3.89017 24.2927 3.57422 23.8112 3.30997 23.1372C3.10892 22.6274 2.86765 21.8571 2.80446 20.4468C2.73552 18.9175 2.71829 18.4587 2.71829 14.5901C2.71829 10.7159 2.73552 10.2571 2.80446 8.73347C2.86765 7.31746 3.10892 6.55281 3.30997 6.04304C3.57422 5.36902 3.89591 4.88191 4.40717 4.37781C4.92417 3.86804 5.41245 3.55652 6.09605 3.29597C6.61305 3.09773 7.3943 2.85984 8.82468 2.79753C10.3699 2.72957 10.8352 2.71257 14.7645 2.71257ZM14.7645 0.10144C10.7721 0.10144 10.2723 0.118433 8.70404 0.186401C7.14154 0.25437 6.06733 0.503589 5.13672 0.860425C4.1659 1.23425 3.34444 1.72703 2.52872 2.53699C1.70726 3.34128 1.20749 4.15125 0.828355 5.10281C0.466452 6.02605 0.213695 7.07957 0.144761 8.62019C0.0758272 10.1721 0.0585938 10.6649 0.0585938 14.6014C0.0585938 18.538 0.0758272 19.0307 0.144761 20.577C0.213695 22.1177 0.466452 23.1768 0.828355 24.0944C1.20749 25.0516 1.70726 25.8616 2.52872 26.6659C3.34444 27.4702 4.1659 27.9686 5.13097 28.3368C6.06733 28.6936 7.1358 28.9429 8.6983 29.0108C10.2665 29.0788 10.7663 29.0958 14.7587 29.0958C18.7512 29.0958 19.2509 29.0788 20.8192 29.0108C22.3817 28.9429 23.4559 28.6936 24.3865 28.3368C25.3516 27.9686 26.173 27.4702 26.9887 26.6659C27.8045 25.8616 28.31 25.0516 28.6834 24.1001C29.0453 23.1768 29.298 22.1233 29.367 20.5827C29.4359 19.0364 29.4531 18.5436 29.4531 14.6071C29.4531 10.6706 29.4359 10.1778 29.367 8.63152C29.298 7.0909 29.0453 6.03172 28.6834 5.11414C28.3215 4.15125 27.8217 3.34128 27.0002 2.53699C26.1845 1.73269 25.3631 1.23425 24.398 0.866089C23.4616 0.509253 22.3932 0.260034 20.8307 0.192065C19.2567 0.118433 18.7569 0.10144 14.7645 0.10144Z" fill="#D8D8D8"/>
<path d="M14.7649 7.1532C10.5944 7.1532 7.21094 10.4893 7.21094 14.6014C7.21094 18.7135 10.5944 22.0497 14.7649 22.0497C18.9354 22.0497 22.3189 18.7135 22.3189 14.6014C22.3189 10.4893 18.9354 7.1532 14.7649 7.1532ZM14.7649 19.4329C12.0593 19.4329 9.86489 17.2692 9.86489 14.6014C9.86489 11.9337 12.0593 9.76999 14.7649 9.76999C17.4706 9.76999 19.665 11.9337 19.665 14.6014C19.665 17.2692 17.4706 19.4329 14.7649 19.4329Z" fill="#D8D8D8"/>
<path d="M24.3806 6.85838C24.3806 7.82127 23.5879 8.59724 22.6171 8.59724C21.6405 8.59724 20.8535 7.8156 20.8535 6.85838C20.8535 5.89548 21.6463 5.11951 22.6171 5.11951C23.5879 5.11951 24.3806 5.90115 24.3806 6.85838Z" fill="#D8D8D8"/>
</g>
<defs>
<clipPath id="clip0_1418_16882">
<rect width="29.4118" height="29" fill="white" transform="translate(0.0585938 0.101562)"/>
</clipPath>
</defs>
</svg>
