<svg width="15" height="19" viewBox="0 0 15 19" fill="none" xmlns="http://www.w3.org/2000/svg">
<path d="M4.7282 4.5125C5.39625 3.84445 6.20745 3.51042 7.16181 3.51042C8.11616 3.51042 8.92736 3.84445 9.59541 4.5125C10.2635 5.18055 10.5975 5.99175 10.5975 6.9461C10.5975 7.90046 10.2635 8.71166 9.59541 9.37971C8.92736 10.0478 8.11616 10.3818 7.16181 10.3818C6.20745 10.3818 5.39625 10.0478 4.7282 9.37971C4.06015 8.71166 3.72613 7.90046 3.72613 6.9461C3.72613 5.99175 4.06015 5.18055 4.7282 4.5125ZM5.55133 8.55658C6.00465 9.00989 6.54148 9.23655 7.16181 9.23655C7.78214 9.23655 8.31896 9.00989 8.77228 8.55658C9.2256 8.10326 9.45226 7.56643 9.45226 6.9461C9.45226 6.32577 9.2256 5.78895 8.77228 5.33563C8.31896 4.88231 7.78214 4.65565 7.16181 4.65565C6.54148 4.65565 6.00465 4.88231 5.55133 5.33563C5.09802 5.78895 4.87136 6.32577 4.87136 6.9461C4.87136 7.56643 5.09802 8.10326 5.55133 8.55658ZM2.2946 2.07889C3.63069 0.742795 5.2531 0.0747461 7.16181 0.0747461C9.07052 0.0747461 10.6929 0.742795 12.029 2.07889C13.3651 3.41499 14.0332 5.03739 14.0332 6.9461C14.0332 7.3517 14.0093 7.70959 13.9616 8.01975C13.9377 8.30606 13.8423 8.65201 13.6753 9.05761C13.5321 9.46321 13.389 9.79724 13.2458 10.0597C13.1265 10.3221 12.8641 10.7755 12.4585 11.4196C12.0529 12.04 11.695 12.5649 11.3848 12.9943C11.0747 13.4238 10.5498 14.1634 9.81014 15.2132C9.09438 16.263 8.45019 17.2054 7.87757 18.0405C7.71056 18.2791 7.47197 18.3984 7.16181 18.3984C6.85164 18.3984 6.61305 18.2791 6.44604 18.0405C5.87343 17.2054 5.21731 16.263 4.47768 15.2132C3.76192 14.1634 3.24895 13.4238 2.93879 12.9943C2.62862 12.5649 2.27074 12.04 1.86514 11.4196C1.45954 10.7755 1.18516 10.3221 1.04201 10.0597C0.922712 9.79724 0.779559 9.46321 0.612547 9.05761C0.469394 8.65201 0.373958 8.30606 0.32624 8.01975C0.302381 7.70959 0.290452 7.3517 0.290452 6.9461C0.290452 5.03739 0.958501 3.41499 2.2946 2.07889ZM7.16181 17.0384C7.66284 16.2988 8.2116 15.4995 8.80807 14.6406C9.4284 13.7817 9.88172 13.1494 10.168 12.7438C10.4543 12.3143 10.7764 11.8372 11.1343 11.3123C11.5161 10.7874 11.7785 10.3937 11.9217 10.1313C12.0648 9.86881 12.2199 9.58251 12.3869 9.27234C12.5539 8.96218 12.6613 8.69973 12.709 8.485C12.7567 8.24641 12.7925 8.00782 12.8164 7.76923C12.8641 7.53064 12.8879 7.25627 12.8879 6.9461C12.8879 5.37142 12.3273 4.02339 11.2059 2.90202C10.0845 1.78066 8.73649 1.21997 7.16181 1.21997C5.58712 1.21997 4.2391 1.78066 3.11773 2.90202C1.99636 4.02339 1.43568 5.37142 1.43568 6.9461C1.43568 7.25627 1.44761 7.53064 1.47147 7.76923C1.51918 8.00782 1.5669 8.24641 1.61462 8.485C1.66234 8.69973 1.7697 8.96218 1.93671 9.27234C2.10373 9.58251 2.25881 9.86881 2.40196 10.1313C2.54512 10.3937 2.79563 10.7874 3.15352 11.3123C3.53526 11.8372 3.86928 12.3143 4.15559 12.7438C4.4419 13.1494 4.88329 13.7817 5.47976 14.6406C6.10009 15.4995 6.66077 16.2988 7.16181 17.0384Z" fill="#036CCC"/>
</svg>
