<svg width="30" height="30" viewBox="0 0 30 30" fill="none" xmlns="http://www.w3.org/2000/svg">
<g clip-path="url(#clip0_1418_16880)">
<path d="M9.78194 26.3827C20.878 26.3827 26.9488 17.3162 26.9488 9.45622C26.9488 9.20134 26.943 8.94079 26.9315 8.68591C28.1125 7.84382 29.1316 6.80078 29.9411 5.60579C28.8412 6.08828 27.6735 6.40339 26.4777 6.54036C27.7367 5.79624 28.6795 4.62725 29.1311 3.25011C27.9466 3.94223 26.6513 4.43046 25.3007 4.69388C24.3906 3.74044 23.1874 3.10915 21.877 2.89762C20.5665 2.68608 19.2219 2.90607 18.051 3.52359C16.8801 4.1411 15.9482 5.12174 15.3992 6.31389C14.8502 7.50604 14.7149 8.8433 15.014 10.1189C12.6157 10.0002 10.2694 9.38595 8.12731 8.31584C5.98521 7.24573 4.0951 5.74371 2.5795 3.90714C1.8092 5.21664 1.57348 6.76621 1.92027 8.24091C2.26705 9.71562 3.17031 11.0048 4.44646 11.8465C3.4884 11.8165 2.55133 11.5621 1.71266 11.1045V11.1781C1.7118 12.5523 2.19363 13.8844 3.07625 14.948C3.95886 16.0115 5.18778 16.7409 6.55411 17.0121C5.66662 17.2515 4.73516 17.2864 3.8318 17.114C4.21735 18.2959 4.9675 19.3295 5.97755 20.0708C6.98759 20.812 8.20714 21.2239 9.46599 21.2488C7.32884 22.9041 4.68882 23.8019 1.97116 23.7976C1.48921 23.7969 1.00773 23.7678 0.529297 23.7104C3.29015 25.4568 6.50176 26.3844 9.78194 26.3827Z" fill="#D8D8D8"/>
</g>
<defs>
<clipPath id="clip0_1418_16880">
<rect width="29.4118" height="29" fill="white" transform="translate(0.529297 0.101562)"/>
</clipPath>
</defs>
</svg>
