<svg width="30" height="30" viewBox="0 0 30 30" fill="none" xmlns="http://www.w3.org/2000/svg">
<g clip-path="url(#clip0_1418_16887)">
<path d="M29.7067 8.80137C29.7067 8.80137 29.4195 6.80195 28.5348 5.92402C27.4146 4.76855 26.1623 4.76289 25.5879 4.69492C21.4748 4.40039 15.2995 4.40039 15.2995 4.40039H15.288C15.288 4.40039 9.11271 4.40039 4.99966 4.69492C4.42521 4.76289 3.17291 4.76855 2.05273 5.92402C1.16808 6.80195 0.886604 8.80137 0.886604 8.80137C0.886604 8.80137 0.587891 11.152 0.587891 13.4969V15.6945C0.587891 18.0395 0.880859 20.39 0.880859 20.39C0.880859 20.39 1.16808 22.3895 2.04699 23.2674C3.16716 24.4229 4.63775 24.3832 5.29262 24.5078C7.64786 24.7287 15.2938 24.7967 15.2938 24.7967C15.2938 24.7967 21.4748 24.7854 25.5879 24.4965C26.1623 24.4285 27.4146 24.4229 28.5348 23.2674C29.4195 22.3895 29.7067 20.39 29.7067 20.39C29.7067 20.39 29.9997 18.0451 29.9997 15.6945V13.4969C29.9997 11.152 29.7067 8.80137 29.7067 8.80137ZM12.2549 18.3623V10.2117L20.1996 14.3012L12.2549 18.3623Z" fill="#D8D8D8"/>
</g>
<defs>
<clipPath id="clip0_1418_16887">
<rect width="29.4118" height="29" fill="white" transform="translate(0.587891 0.101562)"/>
</clipPath>
</defs>
</svg>
